<svg width="64" height="64" viewBox="0 0 64 64" xmlns="http://www.w3.org/2000/svg">
  <polygon points="32,14 36.5,25 49,25 39,32.5 42.5,44 32,37 21.5,44 25,32.5 15,25 27.5,25" fill="#0a2a40" stroke="#00e5a0" stroke-width="1.2" stroke-linejoin="round"/>
  <polygon points="32,18 35.5,27 47,27 38,33.5 41,43 32,37 23,43 26,33.5 17,27 28.5,27" fill="#0d2030"/>
  <polygon points="32,21 34.8,29.2 43.5,29.2 36.5,34.2 39,42 32,37.2 25,42 27.5,34.2 20.5,29.2 29.2,29.2" fill="#00e5a0" opacity="0.15"/>
  <circle cx="32" cy="32" r="3" fill="#00e5a0" opacity="0.7"/>
</svg>
